<?xml version="1.0" encoding="utf-8"?>
<!-- Generator: Adobe Illustrator 23.0.3, SVG Export Plug-In . SVG Version: 6.00 Build 0)  -->
<svg version="1.1" id="Layer_1" xmlns="http://www.w3.org/2000/svg" xmlns:xlink="http://www.w3.org/1999/xlink" x="0px" y="0px"
	 viewBox="0 0 60 60" style="enable-background:new 0 0 60 60;" xml:space="preserve">
<style type="text/css">
	.st0{fill:#333333;}
	.st1{clip-path:url(#SVGID_2_);}
	.st2{opacity:0.3;}
	.st3{fill:#676767;}
	.st4{opacity:0.3;clip-path:url(#SVGID_4_);}
	.st5{opacity:0.3;clip-path:url(#SVGID_6_);}
	.st6{fill:#FFFFFF;}
	.st7{fill:none;stroke:#FFFFFF;stroke-width:3;stroke-miterlimit:10;}
	.st8{fill:#FF3366;}
	.st9{fill-rule:evenodd;clip-rule:evenodd;fill:#FF3366;}
	.st10{fill:none;stroke:#FFFFFF;stroke-width:4;stroke-miterlimit:10;}
	.st11{fill-rule:evenodd;clip-rule:evenodd;fill:#666666;}
	.st12{fill-rule:evenodd;clip-rule:evenodd;fill:#FFFFFF;}
	.st13{fill:none;}
	.st14{fill:#666666;}
	.st15{opacity:0.4;fill-rule:evenodd;clip-rule:evenodd;fill:#FFFFFF;}
</style>
<g>
	<g>
		<path d="M54,60H6c-3.3,0-6-2.7-6-6V6c0-3.3,2.7-6,6-6h48c3.3,0,6,2.7,6,6v48C60,57.3,57.3,60,54,60z"/>
	</g>
	<g>
		<g>
			<path class="st6" d="M49,11H11c-0.6,0-1,0.4-1,1v24c0,0.6,0.4,1,1,1h16l3,5l3-5h16c0.6,0,1-0.4,1-1V12C50,11.4,49.6,11,49,11z"/>
			<circle class="st6" cx="30" cy="48.1" r="3.5"/>
		</g>
		<g>
			<polygon class="st8" points="28.6,27.6 28.6,26.4 29.4,26.4 29.4,24 28.6,24 28.6,22.8 30.6,22.8 30.6,26.4 31.4,26.4 31.4,27.6 
				28.6,27.6 			"/>
			<path class="st8" d="M29.8,20.4c0.4,0,0.8,0.4,0.8,0.8c0,0.5-0.4,0.8-0.8,0.8c-0.4,0-0.8-0.4-0.8-0.8
				C29,20.8,29.4,20.4,29.8,20.4z"/>
			<path class="st8" d="M30.1,18.3c-1.5,0-3,0.6-4,1.6c-1.1,1.1-1.7,2.5-1.7,4c0,3.1,2.5,5.7,5.6,5.7c1.5,0,3-0.6,4-1.7
				c1.1-1.1,1.7-2.5,1.7-4C35.6,20.9,33.1,18.3,30.1,18.3z M30,17c3.8,0,7,3.2,7,7c0,1.9-0.7,3.6-2.1,5c-1.3,1.3-3.1,2.1-5,2.1
				c-3.8,0-7-3.2-7-7.1c0-1.8,0.8-3.6,2.1-4.9C26.4,17.7,28.2,17,30,17L30,17z"/>
		</g>
		<circle class="st14" cx="46.5" cy="48.1" r="3.5"/>
		<circle class="st14" cx="13.5" cy="48.1" r="3.5"/>
	</g>
</g>
</svg>
